<svg version="1.1" id="Layer_1" xmlns="http://www.w3.org/2000/svg" xmlns:xlink="http://www.w3.org/1999/xlink" x="0px" y="0px" width="100%" viewBox="0 0 120 120" enable-background="new 0 0 120 120" xml:space="preserve">

<path fill="#F2F2F2" opacity="1.000000" stroke="none" d="
M64.910110,110.255554 
	C62.438133,107.272408 59.556034,104.813057 58.243885,101.693375 
	C54.552937,92.918053 51.648960,83.814270 48.093075,74.977470 
	C47.357513,73.149506 45.409111,71.246445 43.568996,70.520645 
	C34.090687,66.782097 24.465862,63.414940 14.891487,59.920044 
	C10.539854,58.331581 8.139141,54.900223 7.547666,50.638382 
	C6.913883,46.071697 7.766740,41.427418 12.428999,39.099712 
	C20.770481,34.935108 29.106560,30.656721 37.774906,27.270737 
	C57.087387,19.726999 76.604218,12.706522 96.036133,5.468386 
	C104.714050,2.235971 113.265060,6.818840 114.350769,15.872621 
	C114.705902,18.833971 113.134285,22.101757 112.154198,25.135849 
	C104.680771,48.271709 96.563675,71.164864 86.144913,93.177338 
	C84.384377,96.896950 82.873878,100.743950 80.955841,104.377968 
	C77.595596,110.744453 71.886230,112.858505 64.910110,110.255554 
M69.678879,23.861570 
	C68.308067,24.438869 66.929207,24.997873 65.567665,25.596268 
	C50.138771,32.377247 34.699780,39.135681 19.309242,46.002697 
	C18.047760,46.565548 17.121067,47.878735 16.038815,48.843277 
	C17.264101,50.017178 18.287918,51.705204 19.748873,52.277706 
	C26.802626,55.041824 33.897278,57.751190 41.124115,60.010822 
	C49.244999,62.549999 55.661377,66.255478 58.043606,75.379601 
	C59.995098,82.853981 63.060959,90.051170 65.865746,97.280869 
	C66.739388,99.532806 68.373230,101.489822 70.212326,104.481987 
	C72.034676,101.618210 73.324669,100.079773 74.088661,98.313782 
	C80.709869,83.008636 87.578461,67.796974 93.675545,52.283203 
	C98.003113,41.271889 101.320778,29.858301 104.886711,18.560352 
	C105.296150,17.263166 104.681641,15.405531 103.986671,14.104280 
	C103.672783,13.516559 101.861130,13.238745 100.958511,13.530465 
	C90.760353,16.826429 80.606773,20.260330 69.678879,23.861570 
z" data-index="1" style="opacity: 1; visibility: visible;"></path>

</svg>